<?xml version="1.0" standalone="no"?>
<!DOCTYPE svg PUBLIC "-//W3C//DTD SVG 20010904//EN"
 "http://www.w3.org/TR/2001/REC-SVG-20010904/DTD/svg10.dtd">
<svg version="1.0" xmlns="http://www.w3.org/2000/svg"
 width="662.000000pt" height="662.000000pt" viewBox="0 0 662.000000 662.000000"
 preserveAspectRatio="xMidYMid meet">
<metadata>
Created by potrace 1.14, written by Peter Selinger 2001-2017
</metadata>
<g transform="translate(0.000000,662.000000) scale(0.100000,-0.100000)"
fill="#000000" stroke="none">
<path d="M3045 6390 c-516 -38 -992 -190 -1432 -456 -290 -176 -612 -467 -829
-749 -111 -144 -247 -369 -336 -555 -87 -182 -96 -203 -148 -361 -138 -414
-178 -825 -126 -1274 18 -153 55 -356 67 -370 5 -5 9 -18 9 -30 0 -22 31 -122
62 -200 30 -72 34 -83 59 -155 12 -36 26 -69 31 -75 4 -5 8 -17 8 -27 0 -10 5
-18 10 -18 6 0 10 -6 10 -12 0 -22 119 -247 171 -324 27 -40 49 -78 49 -84 0
-5 5 -10 10 -10 6 0 10 -6 10 -13 0 -7 9 -23 20 -35 11 -12 20 -26 20 -32 0
-5 5 -10 10 -10 6 0 10 -6 10 -14 0 -8 3 -16 8 -18 4 -1 23 -24 43 -50 134
-176 317 -362 504 -514 33 -27 69 -57 80 -68 25 -22 297 -204 345 -229 19 -11
67 -36 105 -57 170 -91 431 -192 620 -240 288 -74 420 -91 760 -96 258 -5 295
-3 470 20 263 35 440 76 680 159 169 58 500 224 572 287 7 5 14 10 17 10 6 0
159 101 166 109 3 3 32 26 65 51 73 54 94 71 165 135 83 75 302 296 330 335
14 18 34 43 45 54 39 40 176 240 245 356 24 41 47 77 50 80 12 10 151 298 185
385 43 107 95 260 95 279 0 7 9 40 19 73 26 80 68 329 82 486 16 177 6 517
-19 672 -52 307 -132 570 -248 810 -116 240 -299 526 -442 690 -99 113 -273
284 -366 360 -27 22 -63 52 -80 66 -17 14 -71 55 -121 90 -412 296 -895 487
-1400 554 -141 19 -503 27 -660 15z m665 -294 c261 -45 464 -100 660 -178 106
-43 356 -175 470 -250 326 -212 668 -558 842 -852 193 -325 309 -605 369 -895
51 -246 71 -559 50 -761 -17 -164 -31 -274 -38 -290 -4 -8 -12 -42 -19 -75
-15 -74 -33 -143 -44 -170 -5 -11 -23 -63 -40 -115 -18 -52 -36 -99 -41 -105
-5 -5 -9 -19 -9 -32 0 -13 -4 -23 -10 -23 -5 0 -10 -5 -10 -10 0 -6 -9 -30
-20 -52 -11 -23 -20 -48 -20 -55 0 -7 -4 -13 -10 -13 -5 0 -10 -6 -10 -14 0
-12 -23 -55 -106 -201 -15 -27 -47 -78 -71 -113 -24 -35 -43 -65 -43 -68 0 -4
-16 -24 -62 -77 -15 -18 -28 -35 -28 -38 0 -4 -16 -24 -35 -45 -20 -21 -45
-53 -58 -71 -25 -38 -251 -261 -314 -311 -23 -18 -54 -44 -70 -58 -25 -22
-170 -123 -288 -200 -51 -34 -269 -144 -365 -184 -104 -44 -341 -125 -441
-150 -365 -94 -820 -115 -1149 -55 -41 8 -86 16 -100 19 -296 53 -628 182
-926 359 -254 151 -575 437 -744 662 -24 33 -49 65 -55 71 -5 6 -17 22 -25 34
-8 12 -20 28 -25 34 -17 19 -95 147 -95 156 0 4 -3 10 -7 12 -14 6 -91 155
-168 323 -38 83 -41 92 -65 165 -12 36 -26 74 -30 85 -10 25 -46 151 -55 190
-6 30 -14 73 -33 175 -35 194 -40 626 -8 825 103 647 424 1236 907 1665 46 41
86 77 89 80 3 3 39 30 80 60 41 30 77 57 80 60 6 6 158 101 245 152 53 32 204
106 305 151 184 81 564 173 815 196 155 15 612 6 725 -13z"/>
<path d="M4467 5033 c-44 -14 -81 -33 -84 -41 -3 -8 5 -71 17 -141 60 -322 15
-545 -163 -811 -28 -41 -53 -77 -56 -80 -26 -22 -111 -131 -111 -142 0 -7 34
-31 75 -52 42 -22 105 -64 142 -93 55 -44 69 -51 81 -40 35 28 220 333 281
462 139 293 182 664 99 857 -46 107 -131 132 -281 81z"/>
<path d="M1684 4824 c-34 -36 -38 -52 -34 -134 3 -67 67 -171 119 -193 15 -6
98 -11 196 -12 133 -1 192 -6 272 -23 200 -43 373 -118 556 -239 l112 -74 35
39 c19 21 73 81 120 132 l84 93 -39 34 c-149 129 -498 287 -765 347 -152 33
-412 66 -529 66 l-94 0 -33 -36z"/>
<path d="M4125 4789 c-140 -22 -428 -153 -620 -282 -120 -82 -301 -249 -392
-362 -81 -102 -161 -233 -197 -325 -10 -25 -24 -58 -31 -75 -79 -178 -119
-488 -95 -729 18 -184 55 -258 154 -308 86 -44 218 -12 257 62 25 47 24 93 -8
246 -35 166 -39 394 -9 514 25 101 83 232 147 337 65 106 249 295 355 365 108
72 286 155 426 199 94 30 131 46 139 61 18 33 6 185 -18 240 -26 57 -44 67
-108 57z"/>
<path d="M2001 4310 c-35 -5 -70 -11 -78 -14 -65 -25 100 -420 271 -646 69
-92 86 -111 191 -215 97 -97 189 -169 209 -162 12 4 30 63 62 202 36 157 42
192 35 202 -3 4 -32 28 -64 51 -158 118 -268 270 -357 495 -13 32 -32 64 -44
72 -28 18 -146 25 -225 15z"/>
<path d="M3580 3744 c-92 -35 -171 -108 -215 -198 -35 -73 -49 -211 -21 -222
8 -3 65 1 125 10 228 33 397 16 541 -56 198 -99 353 -327 385 -568 3 -24 10
-49 15 -55 5 -6 11 -65 12 -131 l3 -119 44 -3 c71 -5 229 27 259 53 23 19 27
32 30 91 6 105 -29 292 -72 389 -10 22 -23 51 -28 65 -17 42 -66 135 -81 154
-4 6 -30 42 -57 80 -147 207 -405 397 -660 486 -64 22 -244 38 -280 24z"/>
<path d="M2074 3426 c-66 -76 -124 -159 -124 -174 0 -6 -4 -12 -8 -14 -8 -3
-84 -155 -102 -203 -4 -11 -13 -33 -20 -50 -44 -108 -87 -385 -75 -483 7 -60
21 -78 73 -91 53 -14 214 -20 235 -9 14 7 17 24 18 111 0 56 4 122 9 147 4 25
14 74 20 110 7 36 16 70 20 75 4 6 10 24 14 40 18 73 84 201 160 310 l39 56
-104 105 c-57 57 -109 104 -115 104 -7 0 -25 -15 -40 -34z"/>
<path d="M4877 2348 c-130 -65 -261 -101 -427 -115 l-84 -8 -27 -55 c-15 -30
-46 -95 -70 -145 -24 -49 -47 -91 -51 -93 -5 -2 -8 -10 -8 -18 0 -8 -4 -14
-10 -14 -5 0 -10 -6 -10 -12 0 -7 -10 -25 -23 -40 -12 -14 -38 -46 -57 -69
-60 -75 -152 -158 -240 -218 -190 -130 -328 -177 -550 -188 -275 -13 -493 46
-711 192 -138 92 -359 317 -359 364 0 6 -4 11 -9 11 -5 0 -11 8 -14 18 -4 9
-18 36 -32 60 -14 23 -25 51 -25 62 0 11 -4 20 -10 20 -5 0 -10 9 -10 19 0 11
-5 23 -10 26 -5 3 -10 16 -10 29 0 12 -9 32 -21 44 -17 19 -27 22 -67 16 -29
-3 -92 2 -167 15 -139 24 -153 28 -258 70 -106 42 -110 42 -170 -15 -61 -57
-137 -189 -137 -237 0 -58 55 -101 170 -134 41 -11 220 -30 349 -36 52 -2 53
-3 82 -52 16 -27 36 -66 46 -85 9 -19 20 -37 23 -40 4 -3 22 -27 40 -55 49
-71 56 -80 145 -168 330 -326 728 -466 1219 -429 306 24 522 108 776 302 79
61 190 171 230 230 13 19 27 37 30 40 14 11 110 160 110 170 0 5 5 10 10 10 6
0 10 6 10 14 0 8 10 27 23 41 21 24 30 27 152 36 223 17 359 53 422 112 56 54
4 177 -131 308 -50 49 -72 51 -139 17z"/>
</g>
</svg>
